<svg width="512" height="585" viewBox="0 0 512 585" fill="none" xmlns="http://www.w3.org/2000/svg">
<circle cx="256" cy="318" r="256" fill="black"/>
<path d="M137.801 225.332C174.042 225.332 200.868 233.326 218.278 249.315C235.866 265.126 244.66 287.866 244.66 317.534C244.66 336.898 240.307 353.864 231.602 368.432C223.075 382.822 210.639 394.014 194.295 402.008C177.951 410.003 158.32 414 135.403 414C132.56 414 128.83 413.911 124.211 413.734C119.592 413.556 114.706 413.467 109.554 413.467C104.58 413.289 100.05 413.201 95.9637 413.201C87.6139 413.201 79.4419 413.289 71.4475 413.467C63.4531 413.467 57.0575 413.645 52.2609 414V408.67C57.7681 408.315 61.8542 407.604 64.519 406.539C67.3614 405.473 69.2268 403.341 70.1151 400.143C71.181 396.945 71.714 392.149 71.714 385.753V253.579C71.714 247.006 71.181 242.209 70.1151 239.189C69.2268 235.991 67.3614 233.859 64.519 232.793C61.8542 231.55 57.7681 230.839 52.2609 230.662V225.332C57.0575 225.51 63.4531 225.776 71.4475 226.131C79.4419 226.309 87.4363 226.309 95.4307 226.131C101.826 225.954 109.11 225.776 117.282 225.598C125.454 225.421 132.294 225.332 137.801 225.332ZM139.666 230.129C131.494 230.129 126.165 231.639 123.678 234.659C121.19 237.679 119.947 243.808 119.947 253.046V386.286C119.947 395.524 121.19 401.653 123.678 404.673C126.342 407.693 131.761 409.203 139.933 409.203C153.435 409.203 164.183 405.739 172.177 398.811C180.171 391.704 185.856 381.401 189.232 367.899C192.785 354.397 194.561 337.964 194.561 318.6C194.561 298.703 192.696 282.27 188.965 269.301C185.235 256.155 179.283 246.384 171.111 239.988C163.117 233.415 152.635 230.129 139.666 230.129Z" fill="white"/>
<path d="M246.412 105.163L314.28 280.442C317.084 286.986 319.982 291.567 322.974 294.184C326.152 296.802 328.957 298.204 331.387 298.391V304C325.404 303.626 318.206 303.439 309.793 303.439C301.566 303.252 293.153 303.159 284.552 303.159C275.578 303.159 267.071 303.252 259.032 303.439C250.992 303.439 244.542 303.626 239.681 304V298.391C249.216 298.017 255.292 296.428 257.91 293.623C260.527 290.632 259.966 284.369 256.227 274.833L209.673 147.51L215.282 139.097L174.336 244.826C170.036 256.043 167.419 265.111 166.484 272.029C165.549 278.947 166.016 284.275 167.886 288.014C169.756 291.754 172.654 294.371 176.58 295.867C180.693 297.363 185.554 298.204 191.163 298.391V304C184.62 303.626 178.543 303.439 172.934 303.439C167.512 303.252 161.623 303.159 155.266 303.159C151.527 303.159 147.694 303.252 143.768 303.439C140.028 303.439 136.756 303.626 133.952 304V298.391C138.065 297.643 142.178 295.026 146.292 290.539C150.592 286.051 154.799 278.292 158.912 267.261L222.013 105.163C225.752 105.536 229.772 105.723 234.072 105.723C238.559 105.723 242.672 105.536 246.412 105.163ZM260.995 223.231V228.84H177.421L180.226 223.231H260.995Z" fill="white"/>
<path d="M437.099 212.443C436.351 221.417 435.79 230.018 435.416 238.244C435.229 246.471 435.136 252.827 435.136 257.315C435.136 261.428 435.229 265.261 435.416 268.813C435.603 272.365 435.79 275.45 435.977 278.068H429.527C426.722 263.111 422.796 251.332 417.748 242.731C412.887 233.944 407.184 227.774 400.641 224.222C394.284 220.669 387.273 218.893 379.607 218.893H373.157C368.109 218.893 364.182 219.361 361.378 220.296C358.76 221.043 356.984 222.726 356.049 225.344C355.302 227.961 354.928 232.074 354.928 237.683V379.029C354.928 386.508 355.675 392.117 357.171 395.856C358.667 399.408 361.658 401.745 366.146 402.867C370.633 403.989 377.083 404.643 385.496 404.83V411C379.327 410.813 371.381 410.626 361.658 410.439C351.936 410.252 341.747 410.159 331.09 410.159C322.676 410.159 314.356 410.252 306.13 410.439C298.09 410.626 290.612 410.813 283.694 411V405.391C289.49 405.017 293.79 404.269 296.594 403.147C299.586 402.026 301.549 399.782 302.484 396.417C303.606 393.051 304.167 388.003 304.167 381.273V242.17C304.167 235.253 303.606 230.205 302.484 227.026C301.549 223.661 299.586 221.417 296.594 220.296C293.79 218.987 289.49 218.239 283.694 218.052V212.443C291.733 212.63 300.147 212.817 308.934 213.004C317.909 213.004 326.696 213.097 335.296 213.284C344.084 213.284 352.217 213.284 359.695 213.284C367.361 213.284 373.624 213.284 378.485 213.284C387.086 213.284 396.808 213.284 407.652 213.284C418.683 213.097 428.498 212.817 437.099 212.443ZM395.873 308.917C395.873 308.917 395.873 309.852 395.873 311.721C395.873 313.591 395.873 314.526 395.873 314.526H346.514C346.514 314.526 346.514 313.591 346.514 311.721C346.514 309.852 346.514 308.917 346.514 308.917H395.873ZM403.445 271.898C402.697 282.555 402.323 290.688 402.323 296.297C402.51 301.906 402.604 307.047 402.604 311.721C402.604 316.396 402.697 321.537 402.884 327.146C403.071 332.755 403.539 340.888 404.286 351.545H397.836C396.714 344.814 394.658 338.644 391.666 333.036C388.675 327.427 384.655 322.939 379.607 319.574C374.746 316.209 368.576 314.526 361.097 314.526V308.917C366.519 308.917 371.287 307.795 375.4 305.552C379.514 303.121 382.972 300.036 385.777 296.297C388.768 292.558 391.199 288.538 393.069 284.238C394.938 279.937 396.247 275.824 396.995 271.898H403.445Z" fill="white"/>
<path d="M246.105 312.517C259.006 312.517 269.57 314.293 277.796 317.845C286.022 321.398 293.408 325.698 299.951 330.746C302.008 332.428 303.878 333.27 305.56 333.27C309.113 333.27 311.45 327.661 312.572 316.443H319.022C318.648 323.735 318.367 332.709 318.18 343.366C317.994 354.023 317.9 368.045 317.9 385.433H311.45C310.141 373.093 307.991 362.623 304.999 354.023C302.008 345.236 296.306 337.757 287.892 331.587C283.592 328.035 278.45 325.324 272.467 323.454C266.672 321.398 260.876 320.369 255.08 320.369C244.61 320.369 235.729 323.267 228.437 329.063C221.333 334.672 215.537 342.151 211.049 351.499C206.562 360.66 203.29 370.943 201.234 382.348C199.364 393.566 198.429 404.877 198.429 416.282C198.429 449.936 202.729 474.522 211.33 490.04C220.117 505.558 232.27 513.317 247.788 513.317C251.527 513.317 254.799 512.943 257.604 512.196C260.408 511.261 262.745 510.139 264.615 508.83C267.045 507.147 268.728 505.184 269.663 502.941C270.598 500.697 271.065 497.893 271.065 494.527V466.763C271.065 457.976 270.317 451.432 268.822 447.132C267.326 442.644 264.521 439.653 260.408 438.157C256.482 436.475 250.593 435.54 242.74 435.353V429.744C246.853 429.931 251.808 430.118 257.604 430.305C263.4 430.305 269.476 430.398 275.833 430.585C282.19 430.585 288.079 430.585 293.501 430.585C301.914 430.585 309.58 430.492 316.498 430.305C323.602 430.118 329.398 429.931 333.886 429.744V435.353C330.52 435.54 327.903 436.194 326.033 437.316C324.35 438.438 323.229 440.681 322.668 444.047C322.107 447.412 321.826 452.554 321.826 459.471V515H316.217C316.03 511.822 315.283 508.363 313.974 504.623C312.665 500.884 310.515 499.014 307.523 499.014C306.215 499.014 304.345 499.388 301.915 500.136C299.484 500.884 295.651 502.567 290.416 505.184C283.498 508.924 276.02 512.196 267.98 515C260.128 517.618 252.088 518.926 243.862 518.926C221.239 518.926 202.262 514.907 186.931 506.867C171.787 498.828 160.382 487.329 152.716 472.372C145.051 457.228 141.218 438.999 141.218 417.685C141.218 396.558 145.705 378.141 154.679 362.436C163.654 346.731 175.993 334.485 191.699 325.698C207.591 316.91 225.726 312.517 246.105 312.517Z" fill="white"/>
<path d="M256.104 229.108C273.868 229.108 289.371 232.58 302.613 239.524C315.855 246.468 326.109 256.481 333.376 269.561C340.805 282.48 344.519 298.225 344.519 316.796C344.519 334.883 340.724 350.709 333.134 364.274C325.705 377.839 315.289 388.416 301.886 396.006C288.482 403.596 273.141 407.391 255.862 407.391C238.26 407.391 222.757 403.919 209.353 396.975C196.111 390.031 185.776 380.019 178.348 366.938C171.081 353.858 167.447 338.113 167.447 319.703C167.447 301.616 171.242 285.791 178.832 272.226C186.583 258.661 197.08 248.083 210.322 240.493C223.564 232.903 238.825 229.108 256.104 229.108ZM255.135 233.468C246.576 233.468 239.148 237.102 232.85 244.369C226.552 251.636 221.626 261.648 218.074 274.406C214.682 287.163 212.987 301.939 212.987 318.734C212.987 335.852 214.925 350.79 218.8 363.547C222.838 376.143 228.167 385.913 234.788 392.857C241.409 399.64 248.756 403.031 256.831 403.031C265.39 403.031 272.818 399.398 279.116 392.131C285.576 384.864 290.501 374.851 293.892 362.094C297.284 349.175 298.979 334.399 298.979 317.765C298.979 300.486 297.041 285.548 293.166 272.952C289.29 260.356 283.961 250.667 277.178 243.884C270.557 236.94 263.21 233.468 255.135 233.468Z" fill="#414141"/>
</svg>
