<?xml version="1.0" standalone="no"?>
<!DOCTYPE svg PUBLIC "-//W3C//DTD SVG 20010904//EN"
 "http://www.w3.org/TR/2001/REC-SVG-20010904/DTD/svg10.dtd">
<svg version="1.0" xmlns="http://www.w3.org/2000/svg"
 width="585.000000pt" height="585.000000pt" viewBox="0 0 585.000000 585.000000"
 preserveAspectRatio="xMidYMid meet">
<metadata>
Created by potrace 1.14, written by Peter Selinger 2001-2017
</metadata>
<g transform="translate(0.000000,585.000000) scale(0.100000,-0.100000)"
fill="#000000" stroke="none">
<path d="M2738 5225 c-2 -1 -34 -5 -73 -9 -38 -3 -79 -7 -90 -9 -11 -3 -42 -8
-70 -12 -27 -5 -52 -9 -55 -10 -10 -3 -95 -18 -110 -20 -8 -1 -41 -10 -74 -20
-32 -9 -64 -18 -70 -19 -6 -1 -15 -4 -21 -7 -5 -4 -23 -9 -40 -13 -29 -7 -154
-53 -225 -83 -51 -22 -228 -111 -280 -141 -414 -240 -781 -630 -991 -1052 -29
-58 -53 -107 -54 -110 0 -3 -11 -27 -24 -55 -20 -44 -96 -262 -107 -304 -2 -9
-8 -36 -15 -61 -15 -63 -19 -82 -25 -110 -2 -14 -9 -47 -14 -75 -14 -74 -18
-99 -27 -173 -10 -82 -10 -467 0 -540 15 -113 19 -140 39 -237 44 -224 111
-418 215 -630 46 -94 51 -104 93 -170 14 -22 29 -47 32 -56 4 -10 30 -50 59
-90 51 -73 66 -92 124 -165 105 -132 307 -329 420 -409 16 -11 34 -26 41 -32
7 -7 17 -13 22 -13 6 0 12 -4 14 -8 9 -23 203 -141 357 -217 76 -38 239 -107
281 -120 3 -1 37 -11 75 -24 39 -12 77 -24 85 -26 8 -2 43 -10 77 -19 64 -17
140 -32 203 -42 19 -3 46 -7 60 -10 137 -25 566 -25 700 0 14 2 43 7 65 10 39
5 56 8 105 20 14 3 36 8 50 10 14 3 52 13 85 22 33 9 65 17 70 18 18 4 119 37
140 46 11 5 45 19 75 30 133 50 410 194 485 252 6 4 46 34 90 66 140 102 385
327 385 353 0 5 4 9 8 9 8 0 84 88 112 130 8 12 23 32 34 43 94 110 326 531
326 593 0 8 4 14 10 14 5 0 9 3 8 8 -1 4 15 59 35 122 46 140 87 317 103 435
26 207 26 559 -1 715 -3 14 -6 36 -8 50 -10 61 -20 110 -38 181 -10 42 -20 85
-22 95 -2 10 -7 26 -10 34 -3 8 -16 49 -29 90 -13 41 -26 77 -30 78 -5 2 -8
10 -8 18 0 8 -7 31 -16 52 -10 20 -18 42 -19 49 -5 21 -122 248 -163 315 -206
336 -466 606 -787 817 -55 36 -123 77 -150 91 -28 14 -52 27 -55 30 -15 15
-198 97 -304 137 -182 68 -346 110 -546 139 -25 3 -58 8 -75 11 -35 5 -452 13
-457 8z"/>
</g>
</svg>
